Coordinates
version=1
nRows=37
nColumns=38
inDegrees=no

Units are S.I. units (second, meters, Newtons, ...)
If the header above contains a line with 'inDegrees', this indicates whether rotational values are in degrees (yes) or radians (no).

endheader
time	pelvis_tilt	pelvis_list	pelvis_rotation	pelvis_tx	pelvis_ty	pelvis_tz	hip_flexion_r	hip_adduction_r	hip_rotation_r	knee_angle_r	ankle_angle_r	subtalar_angle_r	mtp_angle_r	hip_flexion_l	hip_adduction_l	hip_rotation_l	knee_angle_l	ankle_angle_l	subtalar_angle_l	mtp_angle_l	lumbar_extension	lumbar_bending	lumbar_rotation	arm_flex_r	arm_add_r	arm_rot_r	elbow_flex_r	pro_sup_r	wrist_flex_r	wrist_dev_r	arm_flex_l	arm_add_l	arm_rot_l	elbow_flex_l	pro_sup_l	wrist_flex_l	wrist_dev_l
0.63	-0.375525	1.222	-1.09707	0.948356	0.825585	0.946037	-0.141311	0.137312	-0.257582	0.325752	-0.252915	0	0	-0.371653	-0.317583	-0.243035	1.01829	-0.431781	0	0	-0.359473	0.22366	-0.0270625	-0.232936	0.00820757	-0.756644	0.709187	0.712736	0	0	0.145099	-0.29515	0.467186	0.751533	1.32144	0	0
0.64	-0.369194	1.22255	-1.11012	0.946612	0.815496	0.947208	-0.157963	0.138059	-0.256748	0.315667	-0.252097	0	0	-0.339719	-0.317964	-0.234142	1.07684	-0.424864	0	0	-0.362377	0.219474	-0.0189722	-0.234067	0.00944448	-0.757826	0.710398	0.711562	0	0	0.137501	-0.29656	0.471665	0.748249	1.30922	0	0
0.65	-0.35942	1.22355	-1.12502	0.945175	0.805631	0.948547	-0.174416	0.137084	-0.255614	0.30577	-0.251971	0	0	-0.307457	-0.315325	-0.223666	1.13013	-0.394108	0	0	-0.364708	0.214595	-0.0118392	-0.233804	0.0104351	-0.760841	0.709181	0.709925	0	0	0.132628	-0.296741	0.47948	0.741021	1.29331	0	0
0.66	-0.346081	1.22254	-1.14202	0.943828	0.795874	0.950105	-0.194211	0.136199	-0.252744	0.294412	-0.251808	0	0	-0.278429	-0.312144	-0.214301	1.17627	-0.353357	0	0	-0.369284	0.209072	-0.00589299	-0.232198	0.0117914	-0.764665	0.705972	0.709106	0	0	0.127095	-0.29891	0.488067	0.735454	1.28318	0	0
0.67	-0.330463	1.21968	-1.16034	0.942422	0.786082	0.951773	-0.218601	0.136376	-0.245969	0.277599	-0.253514	0	0	-0.252365	-0.309257	-0.207633	1.21607	-0.311089	0	0	-0.375641	0.202843	-0.00155743	-0.230299	0.0135172	-0.767338	0.701537	0.710808	0	0	0.119773	-0.303917	0.496515	0.733216	1.27641	0	0
0.68	-0.313576	1.21672	-1.18016	0.940953	0.776264	0.953382	-0.244039	0.136227	-0.23676	0.259341	-0.255531	0	0	-0.227436	-0.305379	-0.203248	1.25001	-0.273147	0	0	-0.381832	0.196154	0.00202207	-0.228647	0.0159065	-0.770952	0.698233	0.713011	0	0	0.112156	-0.308128	0.502516	0.731072	1.26615	0	0
0.69	-0.297118	1.21375	-1.20139	0.939466	0.766608	0.954909	-0.269078	0.135376	-0.224363	0.24165	-0.257114	0	0	-0.203737	-0.299826	-0.200447	1.2773	-0.242874	0	0	-0.388259	0.189762	0.00756011	-0.228385	0.0187706	-0.775936	0.698501	0.71579	0	0	0.105626	-0.309746	0.506547	0.72708	1.25208	0	0
0.7	-0.281007	1.21103	-1.22338	0.937911	0.756915	0.956339	-0.293367	0.13371	-0.212871	0.225554	-0.257265	0	0	-0.181038	-0.293036	-0.198348	1.29688	-0.224159	0	0	-0.394358	0.182668	0.0136209	-0.228911	0.0211711	-0.779398	0.698914	0.718819	0	0	0.0975815	-0.312345	0.509813	0.724468	1.24405	0	0
0.71	-0.265832	1.20852	-1.24565	0.936244	0.747	0.957664	-0.317886	0.131707	-0.201828	0.20833	-0.258249	0	0	-0.160137	-0.286136	-0.198573	1.30895	-0.207795	0	0	-0.399606	0.174972	0.0199992	-0.229745	0.0234081	-0.782569	0.698436	0.723318	0	0	0.0876191	-0.31691	0.514509	0.723961	1.23926	0	0
0.72	-0.248878	1.20622	-1.26892	0.934801	0.737273	0.958878	-0.341136	0.128123	-0.193886	0.193022	-0.259658	0	0	-0.139702	-0.277948	-0.198591	1.31477	-0.19411	0	0	-0.405088	0.166911	0.0245476	-0.228858	0.026167	-0.787154	0.6983	0.725534	0	0	0.0774328	-0.321691	0.518367	0.724225	1.23355	0	0
0.73	-0.229794	1.20335	-1.29428	0.933576	0.727901	0.96001	-0.363106	0.12253	-0.187797	0.181512	-0.260262	0	0	-0.120654	-0.268525	-0.200506	1.31424	-0.18283	0	0	-0.412251	0.158172	0.0285205	-0.227352	0.0284011	-0.790029	0.698882	0.727945	0	0	0.0677104	-0.326645	0.522431	0.725472	1.22821	0	0
0.74	-0.211212	1.20189	-1.31947	0.932409	0.718512	0.960946	-0.382563	0.115983	-0.183476	0.171414	-0.260401	0	0	-0.101311	-0.258335	-0.204352	1.30787	-0.17304	0	0	-0.417789	0.149458	0.0320709	-0.226275	0.029799	-0.790727	0.699432	0.731412	0	0	0.059098	-0.328986	0.524196	0.724319	1.21628	0	0
0.75	-0.191388	1.20095	-1.34447	0.931475	0.709318	0.961706	-0.40049	0.10874	-0.182297	0.16243	-0.260325	0	0	-0.0818309	-0.246963	-0.207227	1.29682	-0.163076	0	0	-0.422738	0.140487	0.0343176	-0.224158	0.0313629	-0.791922	0.699662	0.7328	0	0	0.0509972	-0.331915	0.527392	0.723073	1.20573	0	0
0.76	-0.172671	1.19951	-1.36808	0.930663	0.700255	0.962337	-0.41814	0.101758	-0.181035	0.154563	-0.259089	0	0	-0.0640965	-0.236387	-0.211915	1.28072	-0.152571	0	0	-0.428253	0.131766	0.0365384	-0.221832	0.0324762	-0.792104	0.699819	0.733628	0	0	0.0430712	-0.335785	0.532583	0.722636	1.19921	0	0
0.77	-0.156209	1.19828	-1.38867	0.929977	0.69117	0.962755	-0.434601	0.0955458	-0.180854	0.149064	-0.256576	0	0	-0.0470665	-0.226869	-0.217885	1.25986	-0.144314	0	0	-0.433236	0.123994	0.0383875	-0.220226	0.0329679	-0.790719	0.700134	0.734394	0	0	0.0350533	-0.339432	0.53729	0.722035	1.19676	0	0
0.78	-0.140105	1.19575	-1.40913	0.929317	0.682021	0.963143	-0.452496	0.0893659	-0.17971	0.14253	-0.252856	0	0	-0.0338584	-0.217593	-0.226164	1.23242	-0.135624	0	0	-0.439347	0.116777	0.0399972	-0.219479	0.0327393	-0.787294	0.701483	0.736315	0	0	0.0283267	-0.342269	0.542152	0.721559	1.1859	0	0
0.79	-0.126423	1.19326	-1.42623	0.92877	0.672799	0.963276	-0.469108	0.0840976	-0.179962	0.138549	-0.249713	0	0	-0.0216906	-0.209003	-0.234413	1.2008	-0.128889	0	0	-0.444916	0.110403	0.0414208	-0.218943	0.0325674	-0.78472	0.70329	0.736745	0	0	0.0212991	-0.345928	0.548153	0.721967	1.17922	0	0
0.8	-0.114982	1.19101	-1.4407	0.928297	0.663576	0.963178	-0.484699	0.0796114	-0.180055	0.135668	-0.246576	0	0	-0.0105029	-0.201217	-0.243975	1.16492	-0.123639	0	0	-0.449939	0.104472	0.042706	-0.217476	0.0329327	-0.784385	0.705244	0.734728	0	0	0.0132603	-0.350593	0.554543	0.723465	1.18086	0	0
0.81	-0.103131	1.18691	-1.45615	0.927791	0.65434	0.963113	-0.502699	0.0749164	-0.178516	0.131555	-0.242449	0	0	-0.00435386	-0.194207	-0.258937	1.12177	-0.120949	0	0	-0.457296	0.0983194	0.0447893	-0.216385	0.0331384	-0.783486	0.708158	0.732066	0	0	0.00576421	-0.355357	0.560255	0.726287	1.18106	0	0
0.82	-0.0942192	1.18343	-1.46873	0.927332	0.645079	0.962863	-0.518995	0.0709109	-0.176778	0.129297	-0.238612	0	0	0.000396494	-0.188168	-0.275129	1.07378	-0.120784	0	0	-0.46405	0.0935131	0.0474731	-0.216477	0.0327327	-0.780788	0.711909	0.731085	0	0	-0.000841526	-0.358153	0.563802	0.727729	1.17848	0	0
0.83	-0.0875277	1.18311	-1.47752	0.927081	0.635856	0.962231	-0.523599	0.067663	-0.177568	0.130583	-0.235043	0	0	0.0078081	-0.181784	-0.287968	1.02267	-0.121098	0	0	-0.467503	0.0899474	0.0488067	-0.215415	0.0326545	-0.779421	0.71484	0.729247	0	0	-0.00676245	-0.359224	0.565569	0.72716	1.1757	0	0
0.84	-0.0829602	1.18428	-1.48433	0.926833	0.626565	0.961404	-0.523599	0.0649066	-0.17751	0.133613	-0.229686	0	0	0.01467	-0.175815	-0.301659	0.966516	-0.124081	0	0	-0.468879	0.0867544	0.0502629	-0.213366	0.0321701	-0.778254	0.71559	0.726872	0	0	-0.0126951	-0.359683	0.567075	0.72522	1.17402	0	0
0.85	-0.0802533	1.18605	-1.48904	0.926608	0.617221	0.960423	-0.523599	0.0629579	-0.176166	0.13653	-0.222988	0	0	0.0203449	-0.170157	-0.316647	0.906331	-0.129869	0	0	-0.469089	0.084032	0.0519691	-0.210873	0.0315678	-0.777336	0.714843	0.724131	0	0	-0.0187837	-0.360713	0.56998	0.722803	1.177	0	0
0.86	-0.0777757	1.18885	-1.49257	0.926463	0.607758	0.959287	-0.523599	0.0614044	-0.175104	0.139235	-0.21489	0	0	0.0253039	-0.163605	-0.332107	0.842622	-0.139047	0	0	-0.467972	0.0816162	0.0530907	-0.207966	0.0309383	-0.776548	0.712773	0.720611	0	0	-0.024306	-0.360918	0.571819	0.719241	1.1798	0	0
0.87	-0.0749794	1.19294	-1.49668	0.926374	0.598206	0.958053	-0.523599	0.0591956	-0.173724	0.143987	-0.199973	0	0	0.0289056	-0.155658	-0.348818	0.774269	-0.160849	0	0	-0.464823	0.0786606	0.0542095	-0.205473	0.0280649	-0.769921	0.707976	0.712746	0	0	-0.02916	-0.359734	0.572926	0.71325	1.18106	0	0
0.88	-0.0756655	1.19852	-1.49681	0.926447	0.588581	0.956544	-0.523599	0.0586454	-0.17092	0.145502	-0.192289	0	0	0.0328444	-0.147535	-0.363794	0.705911	-0.167462	0	0	-0.460222	0.0775893	0.0551747	-0.203389	0.0260714	-0.765855	0.705059	0.708645	0	0	-0.0339716	-0.357717	0.572868	0.706926	1.18006	0	0
0.89	-0.0758484	1.20566	-1.4951	0.92678	0.578976	0.954764	-0.523599	0.0590548	-0.169287	0.145351	-0.18461	0	0	0.0375085	-0.137171	-0.37302	0.635477	-0.170881	0	0	-0.453951	0.0770167	0.0542044	-0.200902	0.0245181	-0.763167	0.701543	0.705744	0	0	-0.0385993	-0.355582	0.57182	0.700487	1.1797	0	0
0.9	-0.0763003	1.21359	-1.49069	0.927414	0.56948	0.952768	-0.523599	0.0603818	-0.16942	0.146882	-0.1763	0	0	0.0419823	-0.125093	-0.374929	0.561854	-0.173983	0	0	-0.447203	0.0772898	0.0510616	-0.198023	0.0233153	-0.761306	0.698096	0.703418	0	0	-0.0433924	-0.353589	0.569213	0.695133	1.17957	0	0
0.91	-0.0790433	1.22293	-1.48314	0.928221	0.559907	0.950548	-0.523599	0.0623918	-0.171269	0.151153	-0.167237	0	0	0.0460111	-0.112575	-0.370838	0.484669	-0.17974	0	0	-0.438765	0.0787977	0.0473205	-0.195196	0.0221313	-0.76081	0.694863	0.701463	0	0	-0.0483921	-0.350561	0.564441	0.689778	1.17771	0	0
0.92	-0.0845603	1.23411	-1.47242	0.929225	0.55024	0.948118	-0.523599	0.0654008	-0.172672	0.153208	-0.160249	0	0	0.0501696	-0.0998494	-0.361009	0.405989	-0.187727	0	0	-0.42797	0.0815792	0.0437996	-0.193375	0.0206102	-0.760892	0.692301	0.700285	0	0	-0.0522884	-0.346357	0.560715	0.682513	1.17503	0	0
0.93	-0.0914125	1.2449	-1.46047	0.930343	0.54049	0.945701	-0.523599	0.0682648	-0.174409	0.157363	-0.153534	0	0	0.0518367	-0.0871169	-0.348382	0.328601	-0.195268	0	0	-0.417331	0.0846695	0.0407699	-0.192453	0.0191265	-0.761304	0.691079	0.69771	0	0	-0.0557669	-0.342344	0.558449	0.675463	1.17293	0	0
0.94	-0.0978526	1.25452	-1.44943	0.931503	0.530642	0.943419	-0.523599	0.069914	-0.177622	0.166366	-0.146112	0	0	0.0498654	-0.0739657	-0.33425	0.25324	-0.201237	0	0	-0.407794	0.0872763	0.0377946	-0.191656	0.0173327	-0.761301	0.689669	0.695256	0	0	-0.0593803	-0.338987	0.556936	0.669885	1.16743	0	0
0.95	-0.103617	1.26258	-1.43895	0.932768	0.52086	0.941328	-0.523599	0.0710075	-0.18155	0.177831	-0.139451	0	0	0.0440178	-0.0602568	-0.315427	0.178781	-0.208575	0	0	-0.400061	0.0896519	0.0349965	-0.190903	0.0153238	-0.760931	0.688393	0.692828	0	0	-0.0619915	-0.335948	0.557009	0.664688	1.16125	0	0
0.96	-0.1069	1.26685	-1.43341	0.933833	0.510929	0.939738	-0.523599	0.0702882	-0.184029	0.191178	-0.135192	0	0	0.032103	-0.0479655	-0.2994	0.109058	-0.21646	0	0	-0.396205	0.0902707	0.0350201	-0.190439	0.0132592	-0.760377	0.686602	0.691364	0	0	-0.0644696	-0.333327	0.557358	0.659367	1.16071	0	0
0.97	-0.110675	1.26959	-1.42861	0.934688	0.500847	0.938331	-0.523599	0.0690054	-0.186444	0.208173	-0.129751	0	0	0.0206746	-0.0399783	-0.286156	0.0549609	-0.233059	0	0	-0.393424	0.0901831	0.0368231	-0.190647	0.0112019	-0.759165	0.683959	0.689918	0	0	-0.0672154	-0.331688	0.558228	0.654318	1.16616	0	0
0.98	-0.113775	1.27165	-1.42537	0.93539	0.490651	0.937097	-0.523599	0.0669416	-0.188281	0.226646	-0.125121	0	0	0.0142415	-0.0359418	-0.278472	0.0286422	-0.246383	0	0	-0.391689	0.0897776	0.0383365	-0.19064	0.00937795	-0.757868	0.681604	0.688663	0	0	-0.0706525	-0.329181	0.554585	0.649929	1.16619	0	0
0.99	-0.115521	1.27224	-1.42448	0.935956	0.48033	0.936055	-0.523599	0.0639538	-0.190125	0.245697	-0.122835	0	0	0.0141429	-0.0353673	-0.279217	0.0370594	-0.245446	0	0	-0.392001	0.0885358	0.0395597	-0.189919	0.00841482	-0.757603	0.679923	0.68632	0	0	-0.0751521	-0.328362	0.550586	0.649278	1.16023	0	0
